<svg xmlns="http://www.w3.org/2000/svg" viewBox="0 0 207.4 38.55"><defs><style>.cls-1{fill:#231815;}</style></defs><g id="레이어_2" data-name="레이어 2"><g id="레이어_1-2" data-name="레이어 1"><path class="cls-1" d="M0,0H26.45V6.71H8V16H25.3v6.71H8V37.89H0Z"/><path class="cls-1" d="M57.86,23.59c0,8.64-5.17,15-14.19,15-8.8,0-14-6.32-14-14.79,0-8.8,5.33-15,14.35-15C52.41,8.74,57.86,14.68,57.86,23.59Zm-20.19.06c0,5.5,2.37,8.74,6.16,8.74s6.05-3.24,6.05-8.69c0-5.94-2.2-8.74-6.16-8.74C40.09,15,37.67,17.65,37.67,23.65Z"/><path class="cls-1" d="M63.25,17.16c0-2.86,0-5.34-.06-7.76H71c.11.66.22,3.47.22,5,1.26-3.25,4.29-5.61,9.13-5.67v7.54c-5.72-.17-9.13,1.37-9.13,9.18V37.89H63.25Z"/><path class="cls-1" d="M109.06,28.71c-.93,4.73-4.29,9.84-12.76,9.84-8.85,0-13.41-6.1-13.41-14.68,0-8.42,5.11-15.13,13.8-15.13,9.57,0,12.26,6.93,12.37,10.12h-7.64c-.5-2.31-1.82-3.9-4.9-3.9-3.63,0-5.66,3.13-5.66,8.63,0,6.11,2.2,8.86,5.61,8.86a4.84,4.84,0,0,0,4.89-3.74Z"/><path class="cls-1" d="M120.61,25.35c0,3.58,1.82,7,5.72,7,3.3,0,4.24-1.32,5-3h7.86c-1,3.46-4.12,9.18-13,9.18-9.41,0-13.48-7-13.48-14.46,0-9,4.57-15.35,13.75-15.35,9.74,0,13.09,7.1,13.09,14.19a16.61,16.61,0,0,1-.11,2.42Zm11-4.84c-.05-3.3-1.37-6.1-5.22-6.1s-5.28,2.58-5.61,6.1Z"/><path class="cls-1" d="M166.87,0V22.55c0,7.31,3.74,9.46,7.86,9.46,4.68,0,7.59-2.53,7.59-9.46V0h8.25V22.16c0,13-7.59,16.28-15.95,16.28-8.58,0-16-3.46-16-16.11V0Z"/><path class="cls-1" d="M207.4,0V37.89h-8.19V0Z"/></g></g></svg>